<svg width="25" height="36" viewBox="0 0 25 36" fill="none" xmlns="http://www.w3.org/2000/svg">
<path d="M23.9326 0H1.06736C0.477893 0 0 0.472219 0 1.05469V34.9453C0 35.3719 0.26008 35.7564 0.658917 35.9197C0.790985 35.9738 0.929671 36 1.06715 36C1.34495 36 1.61791 35.8929 1.82213 35.691L12.5002 25.1399L23.1779 35.691C23.4831 35.9927 23.9422 36.0829 24.3411 35.9197C24.7399 35.7564 25 35.3719 25 34.9453V1.05469C25 0.472219 24.5221 0 23.9326 0ZM12.5001 22.5937C12.2171 22.5937 11.9456 22.7048 11.7454 22.9026L2.13472 32.3991V2.10938H22.8652V32.3989L13.2549 22.9026C13.0547 22.7048 12.7833 22.5937 12.5001 22.5937Z" fill="#384352" fill-opacity="0.5"/>
</svg>
