<svg width="19" height="19" viewBox="0 0 19 19" fill="none" xmlns="http://www.w3.org/2000/svg">
<g clip-path="url(#clip0)">
<path d="M9.5021 0.0423245C5.65929 0.041634 2.19469 2.35626 0.724163 5.90665C-0.746192 9.45705 0.0671814 13.5436 2.78521 16.2601C6.49493 19.9698 12.5094 19.9698 16.219 16.2601C19.9287 12.5505 19.9287 6.53602 16.219 2.8263C14.4415 1.03867 12.023 0.0362829 9.5021 0.0423245ZM9.5021 18.1602C4.75167 18.1602 0.885042 14.2936 0.885042 9.54318C0.885042 4.79275 4.75167 0.926125 9.5021 0.926125C14.2525 0.926125 18.1192 4.79275 18.1192 9.54318C18.1192 14.2936 14.2525 18.1602 9.5021 18.1602Z" fill="#41A9A5"/>
<path d="M14.0162 6.62243L8.31138 12.0754L5.20029 8.96882C5.02837 8.79672 4.74942 8.79672 4.57732 8.96882C4.40522 9.14092 4.40522 9.41987 4.57732 9.59197L7.99324 13.0079C8.0761 13.0913 8.18934 13.1375 8.30689 13.136C8.42099 13.137 8.53077 13.0925 8.61191 13.0122L14.6261 7.26318C14.8004 7.09419 14.8061 6.81628 14.6388 6.64038C14.4714 6.46465 14.1937 6.45654 14.0162 6.62243Z" fill="#41A9A5"/>
</g>
<defs>
<clipPath id="clip0">
<rect width="19" height="19" fill="white"/>
</clipPath>
</defs>
</svg>
