<svg width="24" height="25" viewBox="0 0 24 25" fill="none" xmlns="http://www.w3.org/2000/svg">
<path d="M22 0.40625H2C1.46976 0.406885 0.961423 0.617803 0.586488 0.992738C0.211553 1.36767 0.000635143 1.87601 0 2.40625V17.6063C0.000635143 18.1365 0.211553 18.6448 0.586488 19.0198C0.961423 19.3947 1.46976 19.6056 2 19.6063H8.6228L7.7228 22.0063H6.8C6.48174 22.0063 6.17652 22.1327 5.95147 22.3577C5.72643 22.5828 5.6 22.888 5.6 23.2063V24.0063C5.6 24.1123 5.64214 24.2141 5.71716 24.2891C5.79217 24.3641 5.89391 24.4062 6 24.4062H18C18.1061 24.4062 18.2078 24.3641 18.2828 24.2891C18.3579 24.2141 18.4 24.1123 18.4 24.0063V23.2063C18.4 22.888 18.2736 22.5828 18.0485 22.3577C17.8235 22.1327 17.5183 22.0063 17.2 22.0063H16.2772L15.3772 19.6063H22C22.5302 19.6056 23.0386 19.3947 23.4135 19.0198C23.7884 18.6448 23.9994 18.1365 24 17.6063V2.40625C23.9994 1.87601 23.7884 1.36767 23.4135 0.992738C23.0386 0.617803 22.5302 0.406885 22 0.40625ZM2 1.20625H22C22.3183 1.20625 22.6235 1.33268 22.8485 1.55772C23.0736 1.78277 23.2 2.08799 23.2 2.40625V14.8063H0.8V2.40625C0.8 2.08799 0.926428 1.78277 1.15147 1.55772C1.37652 1.33268 1.68174 1.20625 2 1.20625ZM17.6 23.2063V23.6063H6.4V23.2063C6.4 23.1002 6.44214 22.9984 6.51716 22.9234C6.59217 22.8484 6.69391 22.8062 6.8 22.8062H17.2C17.3061 22.8062 17.4078 22.8484 17.4828 22.9234C17.5579 22.9984 17.6 23.1002 17.6 23.2063ZM15.4228 22.0063H8.5772L9.4772 19.6063H14.5228L15.4228 22.0063ZM22 18.8062H2C1.68174 18.8062 1.37652 18.6798 1.15147 18.4548C0.926428 18.2297 0.8 17.9245 0.8 17.6063V15.6062H23.2V17.6063C23.2 17.9245 23.0736 18.2297 22.8485 18.4548C22.6235 18.6798 22.3183 18.8062 22 18.8062Z" fill="#384352"/>
<path d="M11.9998 16.0062C11.7625 16.0062 11.5305 16.0766 11.3331 16.2085C11.1358 16.3403 10.982 16.5277 10.8911 16.747C10.8003 16.9663 10.7766 17.2076 10.8229 17.4403C10.8692 17.6731 10.9835 17.8869 11.1513 18.0548C11.3191 18.2226 11.5329 18.3369 11.7657 18.3832C11.9985 18.4295 12.2397 18.4057 12.459 18.3149C12.6783 18.2241 12.8657 18.0703 12.9976 17.8729C13.1294 17.6756 13.1998 17.4436 13.1998 17.2062C13.1998 16.888 13.0734 16.5827 12.8483 16.3577C12.6233 16.1327 12.3181 16.0062 11.9998 16.0062ZM11.9998 17.6062C11.9207 17.6062 11.8434 17.5828 11.7776 17.5388C11.7118 17.4949 11.6605 17.4324 11.6303 17.3593C11.6 17.2862 11.5921 17.2058 11.6075 17.1282C11.6229 17.0506 11.661 16.9793 11.717 16.9234C11.7729 16.8674 11.8442 16.8293 11.9218 16.8139C11.9994 16.7985 12.0798 16.8064 12.1529 16.8367C12.226 16.867 12.2884 16.9182 12.3324 16.984C12.3763 17.0498 12.3998 17.1271 12.3998 17.2062C12.3998 17.3123 12.3577 17.4141 12.2826 17.4891C12.2076 17.5641 12.1059 17.6062 11.9998 17.6062Z" fill="#384352"/>
</svg>
