<svg width="23" height="23" viewBox="0 0 23 23" fill="none" xmlns="http://www.w3.org/2000/svg">
<path d="M21.7304 2.60165e-08H1.26848C0.567841 0.00042117 -0.000140355 0.568683 2.60165e-08 1.2696V21.7315C0.00042117 22.4322 0.568683 23.0001 1.2696 23H12.2861V14.1055H9.29883V10.624H12.2861V8.06193C12.2861 5.09077 14.1 3.47358 16.7504 3.47358C18.0198 3.47358 19.1107 3.5682 19.4287 3.61046V6.71582H17.6011C16.1591 6.71582 15.8799 7.40102 15.8799 8.40671V10.624H19.3276L18.8784 14.1055H15.8799V23H21.7304C22.4315 23.0001 22.9999 22.432 23 21.731C23 21.7308 23 21.7307 23 21.7304V1.26848C22.9997 0.567841 22.4313 -0.000140355 21.7304 2.60165e-08Z" fill="white"/>
</svg>
